<svg xmlns="http://www.w3.org/2000/svg" viewBox="0 0 24 24" width="100%" height="100%" role="img" aria-label="Prompt Box">
  <defs>
    <linearGradient id="morandi-pb-grad" x1="0%" y1="0%" x2="100%" y2="100%">
      <stop offset="0%" stop-color="#4A6072"/>
      <stop offset="100%" stop-color="#5B7068"/>
    </linearGradient>
  </defs>
  <rect width="20" height="20" x="2" y="2" rx="5" fill="url(#morandi-pb-grad)"/>
  <path fill="#D2DCE4" d="M7 7.5a1 1 0 0 1 1-1h8a1 1 0 0 1 1 1v1a1 1 0 0 1-1 1H8a1 1 0 0 1-1-1v-1z"/>
  <path fill="#EDF2F6" d="M7.5 12a1 1 0 0 1 1.4-.2l2.1 1.7-2.1 1.7a1 1 0 0 1-1.2-1.6l1.1-.9-1.1-.9a1 1 0 0 1-.2-.8z"/>
  <rect width="4.5" height="1.8" x="12" y="14.2" rx="0.9" fill="#FFFFFF"/>
  <path fill="#A3B8B0" d="M17.5 9.5l.6 1.4 1.4.6-1.4.6-.6 1.4-.6-1.4-1.4-.6 1.4-.6.6-1.4z"/>
</svg>
